<svg width="90" height="60" viewBox="0 0 90 60" fill="none" xmlns="http://www.w3.org/2000/svg">
<g id="MyLogo">
<g id="Group">
<g id="Group_2">
<g id="Group_3">
<path id="Vector" d="M0.00406299 45.2016C-0.0345513 43.7117 0.201962 42.4905 0.718427 41.5361C1.23248 40.5837 2.04338 40.1054 3.15113 40.1054C3.90411 40.1054 4.47608 40.3742 4.86946 40.9096C5.26767 41.4472 5.46799 42.0609 5.46799 42.7551C5.46799 43.8344 5.29663 44.6598 4.95635 45.2354C4.62088 45.8068 4.28542 46.3423 3.95237 46.8438C3.61691 47.3475 3.45039 48.0121 3.45039 48.8417C3.45039 50.0903 3.8124 51.0342 4.54124 51.6775C5.27491 52.3209 6.19442 52.6426 7.30217 52.6426C8.17099 52.6426 8.83226 52.3421 9.2908 51.7368C9.74693 51.1273 10.0534 50.3294 10.2079 49.3411C10.3672 48.3485 10.4589 47.2735 10.4782 46.1158C10.4975 44.954 10.5072 43.8344 10.5072 42.7551C10.5072 42.1689 10.5072 41.3033 10.5072 40.1562C10.5072 39.0113 10.5072 37.7309 10.5072 36.313C10.5072 34.8908 10.5072 33.4432 10.5072 31.9703C10.5072 30.4931 10.5072 29.1386 10.5072 27.9069C10.5072 26.6773 10.5072 25.6805 10.5072 24.9186C10.5072 24.1568 10.5072 23.7758 10.5072 23.7758C10.5072 22.597 10.4782 21.6426 10.4203 20.9145C10.3623 20.1865 10.2417 19.5643 10.0631 19.0437C9.88208 18.5252 9.59489 17.9855 9.20392 17.4268H18.8092C18.2928 18.2628 17.9452 19.0987 17.7666 19.9326C17.5929 20.7622 17.506 22.0447 17.506 23.7758C17.506 23.7758 17.506 24.1652 17.506 24.944C17.506 25.7229 17.506 26.7556 17.506 28.0424C17.506 29.3248 17.506 30.7089 17.506 32.1988C17.506 33.6887 17.506 35.1744 17.506 36.6516C17.506 38.1246 17.506 39.443 17.506 40.6049C17.506 41.7625 17.506 42.6366 17.506 43.2291C17.4674 46.9708 16.6951 49.7369 15.1891 51.5252C13.688 53.3092 11.3567 54.2002 8.19029 54.2002C6.45265 54.2002 5.0384 53.906 3.95237 53.3198C2.86393 52.7272 2.03373 51.9632 1.46175 51.0257C0.887365 50.0903 0.501222 49.102 0.303324 48.0628C0.103012 47.0258 0.00406299 46.0714 0.00406299 45.2016Z" fill="#0A65CC"/>
</g>
</g>
</g>
<g id="Group_4">
<g id="Group_5">
<g id="Group_6">
<path id="Vector_2" d="M19.4622 41.663C19.4622 39.3774 19.8677 37.2907 20.6786 35.3987C21.4895 33.5088 22.6624 32.002 24.2021 30.8782C25.7467 29.7502 27.6243 29.1851 29.8398 29.1851C32.0915 29.1851 34.0005 29.7502 35.5644 30.8782C37.1283 32.002 38.306 33.5088 39.0976 35.3987C39.8892 37.2907 40.285 39.3774 40.285 41.663C40.285 43.955 39.8795 46.0544 39.0686 47.9612C38.2577 49.8702 37.08 51.3876 35.5354 52.5156C33.9908 53.6393 32.1108 54.2002 29.8977 54.2002C27.6822 54.2002 25.795 53.6393 24.2311 52.5156C22.672 51.3876 21.4895 49.8702 20.6786 47.9612C19.8677 46.0544 19.4622 43.955 19.4622 41.663ZM29.8398 30.3787C29.0096 30.3787 28.3363 30.9015 27.8222 31.9448C27.3057 32.9839 26.9486 34.3532 26.7507 36.0505C26.5576 37.7499 26.4804 39.6038 26.519 41.6122C26.5576 43.627 26.6855 45.502 26.9051 47.2332C27.1223 48.9665 27.4674 50.3633 27.9381 51.4235C28.4135 52.4796 29.0675 53.0066 29.8977 53.0066C30.7279 53.0066 31.3892 52.4796 31.8864 51.4235C32.3811 50.3633 32.7479 48.9665 32.9869 47.2332C33.2234 45.502 33.3247 43.627 33.2861 41.6122C33.2861 39.6038 33.1655 37.7499 32.929 36.0505C32.69 34.3532 32.3232 32.9839 31.8284 31.9448C31.3313 30.9015 30.67 30.3787 29.8398 30.3787Z" fill="#0A65CC"/>
</g>
</g>
</g>
<g id="Group_7">
<g id="Group_8">
<g id="Group_9">
<path id="Vector_3" d="M48.1925 48.5415H43.5684C43.9208 47.9891 44.1862 47.4706 44.36 46.9839C44.5386 46.4992 44.6593 45.9088 44.7172 45.2146C44.7799 44.5204 44.8137 43.602 44.8137 42.4549V18.4811C44.8137 17.2346 44.7027 16.0304 44.4855 14.8664C44.2659 13.7045 43.9594 12.7924 43.5684 12.1321H51.8126V26.2269C52.2035 25.4989 52.7345 24.9296 53.4054 24.5169C54.0812 24.1 54.8945 23.8904 55.8478 23.8904C57.7013 23.8904 59.2989 24.4386 60.6456 25.5327C61.9899 26.6226 63.03 28.0871 63.7637 29.9262C64.4974 31.7611 64.8642 33.8414 64.8642 36.1652C64.8642 38.5926 64.5167 40.7682 63.8216 42.6919C63.1314 44.6178 62.1636 46.1352 60.9159 47.2463C59.6658 48.3531 58.1743 48.9055 56.4366 48.9055C55.0513 48.9055 53.975 48.4293 53.2027 47.4748C52.4304 46.5225 51.967 45.5088 51.8126 44.4358C51.774 45.5088 51.5543 46.4632 51.1561 47.2971C50.7627 48.1267 49.7757 48.5415 48.1925 48.5415ZM51.8126 36.2668C51.8126 38.6942 51.9091 40.5841 52.1022 41.9385C52.3001 43.2887 52.5969 44.2242 52.9903 44.749C53.3885 45.2696 53.8833 45.5278 54.477 45.5278C55.2686 45.5278 55.8791 45.2696 56.3111 44.749C56.748 44.2242 57.0665 43.2887 57.2668 41.9385C57.4647 40.5841 57.5661 38.6942 57.5661 36.2668C57.5661 32.8023 57.3465 30.2204 56.9097 28.521C56.4777 26.8237 55.6668 25.9729 54.477 25.9729C53.292 25.9729 52.5511 26.8237 52.2566 28.521C51.9598 30.2204 51.8126 32.8023 51.8126 36.2668Z" fill="#0A65CC"/>
</g>
</g>
</g>
<g id="Group_10">
<g id="Group_11">
<g id="Group_12">
<path id="Vector_4" d="M27.9261 26.0365L26.816 26.1296L26.4105 22.3033L24.808 22.4302L24.7211 21.6091L29.0363 21.262L29.1232 22.0832L27.5207 22.2101L27.9261 26.0365Z" fill="black"/>
</g>
</g>
</g>
<g id="Group_13">
<g id="Group_14">
<g id="Group_15">
<path id="Vector_5" d="M35.2896 22.1433L34.1987 26.7061L33.1175 26.5029L33.6002 24.4543L31.5536 24.0818L31.0709 26.1304L29.9897 25.9273L31.0806 21.3645L32.1618 21.5676L31.7467 23.2946L33.7933 23.667L34.2084 21.9401L35.2896 22.1433Z" fill="black"/>
</g>
</g>
</g>
<g id="Group_16">
<g id="Group_17">
<g id="Group_18">
<path id="Vector_6" d="M40.5614 25.344L38.0997 24.125L37.5495 24.98L39.818 26.0974L39.3547 26.817L37.0861 25.6996L36.4103 26.7493L38.9878 28.0191L38.5245 28.7386L35.0009 26.9948L37.617 22.9314L41.0247 24.6245L40.5614 25.344Z" fill="black"/>
</g>
</g>
</g>
<g id="Group_19">
<g id="Group_20">
<g id="Group_21">
<path id="Vector_7" d="M47.9614 57.1557H49.2646C49.5156 57.1557 49.7087 57.1112 49.8438 57.0202C49.979 56.9313 50.0466 56.8044 50.0466 56.6393C50.0466 56.4763 49.9838 56.3515 49.8631 56.2668C49.74 56.1821 49.5301 56.1398 49.2357 56.1398H47.9614V57.1557ZM47.9614 59.1958H49.3225C49.5928 59.1958 49.8004 59.1429 49.95 59.035C50.0972 58.9228 50.172 58.7471 50.172 58.5101C50.172 58.3366 50.0996 58.1969 49.9597 58.0953C49.8173 57.9937 49.6242 57.9429 49.3805 57.9429H47.9614V59.1958ZM46.8898 55.3356H49.477C50.0103 55.3356 50.4158 55.4499 50.6933 55.6742C50.9757 55.9007 51.1181 56.1864 51.1181 56.5292C51.1181 57.0033 50.8985 57.3229 50.4617 57.4858C51.0143 57.6678 51.2919 58.0424 51.2919 58.6117C51.2919 58.7979 51.2484 58.9757 51.1664 59.145C51.0819 59.3143 50.9564 59.4709 50.7899 59.6106C50.6209 59.7524 50.4182 59.854 50.1817 59.9154C49.9428 59.9725 49.5977 60 49.1488 60H46.8898V55.3356Z" fill="black"/>
</g>
</g>
</g>
<g id="Group_22">
<g id="Group_23">
<g id="Group_24">
<path id="Vector_8" d="M56.7039 56.1568H53.8754V57.1387H56.4722V57.9683H53.8754V59.1704H56.8294V60H52.7845V55.3356H56.7039V56.1568Z" fill="black"/>
</g>
</g>
</g>
<g id="Group_25">
<g id="Group_26">
<g id="Group_27">
<path id="Vector_9" d="M62.28 56.1568H59.4515V57.1387H62.0483V57.9683H59.4515V59.1704H62.4055V60H58.3606V55.3356H62.28V56.1568Z" fill="black"/>
</g>
</g>
</g>
<g id="Clip path group">
<mask id="mask0_2210_19398" style="mask-type:luminance" maskUnits="userSpaceOnUse" x="75" y="4" width="15" height="8">
<g id="dbbac8dddf">
<path id="Vector_10" d="M75.7899 4.33424H90V11.3774H75.7899V4.33424Z" fill="white"/>
</g>
</mask>
<g mask="url(#mask0_2210_19398)">
<g id="Group_28">
<g id="Clip path group_2">
<mask id="mask1_2210_19398" style="mask-type:luminance" maskUnits="userSpaceOnUse" x="60" y="-3" width="33" height="27">
<g id="33ce054680">
<path id="Vector_11" d="M66.7614 -2.34911L92.0055 4.46547L85.3252 23.4934L60.0811 16.6788L66.7614 -2.34911Z" fill="white"/>
</g>
</mask>
<g mask="url(#mask1_2210_19398)">
<g id="Group_29">
<g id="Clip path group_3">
<mask id="mask2_2210_19398" style="mask-type:luminance" maskUnits="userSpaceOnUse" x="59" y="-3" width="33" height="27">
<g id="9fd30f7d9b">
<path id="Vector_12" d="M91.8655 4.42738L66.6238 -2.38721L59.9435 16.6428L85.1852 23.4574L91.8655 4.42738Z" fill="white"/>
</g>
</mask>
<g mask="url(#mask2_2210_19398)">
<g id="Group_30">
<path id="Vector_13" d="M76.1375 8.01663C76.1809 7.99547 76.3619 7.79018 76.4174 7.74151C81.9103 2.59882 89.3701 4.83367 89.6018 7.87695C89.7948 10.2113 84.0606 14.0863 76.1375 8.01663Z" fill="black"/>
</g>
</g>
</g>
</g>
</g>
</g>
</g>
</g>
</g>
<g id="Clip path group_4">
<mask id="mask3_2210_19398" style="mask-type:luminance" maskUnits="userSpaceOnUse" x="71" y="0" width="7" height="8">
<g id="e5ba05f948">
<path id="Vector_14" d="M71.4651 0H77.0256V7.58493H71.4651V0Z" fill="white"/>
</g>
</mask>
<g mask="url(#mask3_2210_19398)">
<g id="Group_31">
<g id="Clip path group_5">
<mask id="mask4_2210_19398" style="mask-type:luminance" maskUnits="userSpaceOnUse" x="60" y="-3" width="33" height="27">
<g id="e37f6f32f2">
<path id="Vector_15" d="M66.7614 -2.34911L92.0055 4.46548L85.3252 23.4934L60.0811 16.6788L66.7614 -2.34911Z" fill="white"/>
</g>
</mask>
<g mask="url(#mask4_2210_19398)">
<g id="Group_32">
<g id="Clip path group_6">
<mask id="mask5_2210_19398" style="mask-type:luminance" maskUnits="userSpaceOnUse" x="59" y="-3" width="33" height="27">
<g id="fb13835d77">
<path id="Vector_16" d="M91.8655 4.42739L66.6238 -2.3872L59.9436 16.6428L85.1853 23.4574L91.8655 4.42739Z" fill="white"/>
</g>
</mask>
<g mask="url(#mask5_2210_19398)">
<g id="Group_33">
<path id="Vector_17" d="M74.8125 7.05581C70.3404 3.62736 72.2953 0.319533 73.8133 0.222181C75.8116 0.0952014 78.2902 3.33319 74.9742 6.90767C74.9307 6.92883 74.8221 7.02618 74.8125 7.05581Z" fill="black"/>
</g>
</g>
</g>
</g>
</g>
</g>
</g>
</g>
</g>
<g id="Clip path group_7">
<mask id="mask6_2210_19398" style="mask-type:luminance" maskUnits="userSpaceOnUse" x="71" y="13" width="9" height="8">
<g id="8ca6eb5829">
<path id="Vector_18" d="M71.4651 13.5445H79.4969V20.0459H71.4651V13.5445Z" fill="white"/>
</g>
</mask>
<g mask="url(#mask6_2210_19398)">
<g id="Group_34">
<g id="Clip path group_8">
<mask id="mask7_2210_19398" style="mask-type:luminance" maskUnits="userSpaceOnUse" x="60" y="-3" width="33" height="27">
<g id="b90653909d">
<path id="Vector_19" d="M66.7614 -2.34915L92.0055 4.46543L85.3252 23.4934L60.0811 16.6788L66.7614 -2.34915Z" fill="white"/>
</g>
</mask>
<g mask="url(#mask7_2210_19398)">
<g id="Group_35">
<g id="Clip path group_9">
<mask id="mask8_2210_19398" style="mask-type:luminance" maskUnits="userSpaceOnUse" x="59" y="-3" width="33" height="27">
<g id="8d84b80ab7">
<path id="Vector_20" d="M91.8655 4.42739L66.6238 -2.38719L59.9436 16.6429L85.1853 23.4574L91.8655 4.42739Z" fill="white"/>
</g>
</mask>
<g mask="url(#mask8_2210_19398)">
<g id="Group_36">
<path id="Vector_21" d="M77.851 13.8493C78.3505 15.4111 78.6112 16.9391 78.7705 18.029C78.7825 18.0967 78.7729 18.1243 78.7849 18.192C78.8187 18.6131 78.8839 18.9475 78.8887 19.2353C78.9201 19.5591 78.6329 19.8639 78.2274 19.8808C77.9354 19.8977 77.53 19.9147 77.0497 19.9422C76.9749 19.9549 76.9387 19.9443 76.8639 19.9549C75.5848 19.9909 73.8689 19.9379 72.0564 19.7369C73.3862 19.1443 74.5808 18.3232 75.5824 17.3264C76.5936 16.3021 77.3707 15.1148 77.851 13.8493Z" fill="black"/>
</g>
</g>
</g>
</g>
</g>
</g>
</g>
</g>
</g>
<g id="Clip path group_10">
<mask id="mask9_2210_19398" style="mask-type:luminance" maskUnits="userSpaceOnUse" x="61" y="5" width="10" height="10">
<g id="9331dd1c6d">
<path id="Vector_22" d="M61.5799 5.95958H70.8473V14.6281H61.5799V5.95958Z" fill="white"/>
</g>
</mask>
<g mask="url(#mask9_2210_19398)">
<g id="Group_37">
<g id="Clip path group_11">
<mask id="mask10_2210_19398" style="mask-type:luminance" maskUnits="userSpaceOnUse" x="60" y="-3" width="33" height="27">
<g id="5600362f75">
<path id="Vector_23" d="M66.7614 -2.3491L92.0055 4.46549L85.3252 23.4934L60.0811 16.6788L66.7614 -2.3491Z" fill="white"/>
</g>
</mask>
<g mask="url(#mask10_2210_19398)">
<g id="Group_38">
<g id="Clip path group_12">
<mask id="mask11_2210_19398" style="mask-type:luminance" maskUnits="userSpaceOnUse" x="59" y="-3" width="33" height="27">
<g id="efdef24e80">
<path id="Vector_24" d="M91.8655 4.42739L66.6238 -2.38719L59.9436 16.6429L85.1853 23.4574L91.8655 4.42739Z" fill="white"/>
</g>
</mask>
<g mask="url(#mask11_2210_19398)">
<g id="Group_39">
<path id="Vector_25" d="M63.9136 8.34261C65.2434 7.02202 67.0607 6.27707 68.9286 6.20934C69.1121 6.19665 69.2882 6.21146 69.4861 6.26437C70.3453 6.49717 70.98 7.36698 70.7701 8.16695C70.437 9.5341 69.672 10.7849 68.5546 11.9107C67.4468 13.0091 66.146 13.8303 64.7028 14.3276C64.3335 14.4503 63.9064 14.4292 63.5444 14.3318C62.8493 14.1435 62.3015 13.6482 62.2315 13.026C62.0046 11.4092 62.5693 9.69071 63.9136 8.34261Z" fill="black"/>
</g>
</g>
</g>
</g>
</g>
</g>
</g>
</g>
</g>
<g id="Clip path group_13">
<mask id="mask12_2210_19398" style="mask-type:luminance" maskUnits="userSpaceOnUse" x="63" y="7" width="14" height="12">
<g id="664ff942d1">
<path id="Vector_26" d="M63.4334 7.04315H76.4078V18.9623H63.4334V7.04315Z" fill="white"/>
</g>
</mask>
<g mask="url(#mask12_2210_19398)">
<g id="Group_40">
<g id="Clip path group_14">
<mask id="mask13_2210_19398" style="mask-type:luminance" maskUnits="userSpaceOnUse" x="60" y="-3" width="33" height="27">
<g id="584eb1dbf0">
<path id="Vector_27" d="M66.7614 -2.34911L92.0055 4.46548L85.3252 23.4934L60.0811 16.6788L66.7614 -2.34911Z" fill="white"/>
</g>
</mask>
<g mask="url(#mask13_2210_19398)">
<g id="Group_41">
<g id="Clip path group_15">
<mask id="mask14_2210_19398" style="mask-type:luminance" maskUnits="userSpaceOnUse" x="59" y="-3" width="33" height="27">
<g id="f1eebfca37">
<path id="Vector_28" d="M91.8656 4.42739L66.6239 -2.3872L59.9436 16.6428L85.1853 23.4574L91.8656 4.42739Z" fill="white"/>
</g>
</mask>
<g mask="url(#mask14_2210_19398)">
<g id="Group_42">
<path id="Vector_29" d="M70.2174 13.2482C71.6124 11.8472 72.5222 10.2854 72.9277 8.61771C73.058 8.14789 73.0435 7.66748 72.9445 7.2294C72.9783 7.23787 73.0363 7.28231 73.0676 7.29289C73.1231 7.33945 73.2221 7.36696 73.28 7.41352C73.7337 7.66325 74.1561 7.99975 74.5157 8.31719C74.7039 8.49708 74.8608 8.66639 75.0514 8.84416C75.9396 9.81344 76.4584 11.2208 76.164 12.4737C75.8406 13.8133 75.1069 15.0746 74.033 16.1794C72.9687 17.2566 71.6872 18.0206 70.2898 18.4989C69.4234 18.8036 68.1009 18.7634 67.0752 18.4862C65.9529 18.1835 64.8959 17.4873 64.1212 16.7063C64.1212 16.7063 64.0874 16.6979 64.097 16.6704C64.0415 16.6238 63.9957 16.5455 63.9402 16.4989C63.9185 16.4608 63.8943 16.4249 63.8629 16.4164C64.4325 16.4418 64.9635 16.3656 65.4534 16.209C67.2514 15.6185 68.8635 14.626 70.2174 13.2482Z" fill="black"/>
</g>
</g>
</g>
</g>
</g>
</g>
</g>
</g>
</g>
</g>
</svg>
